# Blender v2.90.1 OBJ File: 'blank.blend'
# www.blender.org
mtllib diamond.mtl
o gem_diamond
v -0.048919 0.035541 -0.030000
v -0.048919 -0.035541 -0.030000
v -0.060467 0.000000 -0.030000
v -0.018685 0.057507 -0.030000
v -0.018685 -0.057507 -0.030000
v 0.018685 0.057507 -0.030000
v 0.018685 -0.057507 -0.030000
v 0.048919 0.035541 -0.030000
v 0.048919 -0.035541 -0.030000
v 0.060467 0.000000 -0.030000
v -0.073378 0.053312 0.000000
v -0.060467 0.000000 -0.030000
v -0.090700 0.000000 0.000000
v -0.048919 0.035541 -0.030000
v -0.028028 0.086261 0.000000
v -0.048919 0.035541 -0.030000
v -0.073378 0.053312 0.000000
v -0.018685 0.057507 -0.030000
v 0.018685 0.057507 -0.030000
v -0.028028 0.086261 0.000000
v 0.028028 0.086261 0.000000
v -0.018685 0.057507 -0.030000
v 0.028028 0.086261 0.000000
v 0.048919 0.035541 -0.030000
v 0.018685 0.057507 -0.030000
v 0.073378 0.053312 0.000000
v 0.073378 0.053312 0.000000
v 0.060467 0.000000 -0.030000
v 0.048919 0.035541 -0.030000
v 0.090700 0.000000 0.000000
v 0.060467 0.000000 -0.030000
v 0.073378 -0.053312 0.000000
v 0.048919 -0.035541 -0.030000
v 0.090700 0.000000 0.000000
v 0.048919 -0.035541 -0.030000
v 0.028028 -0.086261 0.000000
v 0.018685 -0.057507 -0.030000
v 0.073378 -0.053312 0.000000
v -0.018685 -0.057507 -0.030000
v 0.028028 -0.086261 0.000000
v -0.028028 -0.086261 0.000000
v 0.018685 -0.057507 -0.030000
v -0.048919 -0.035541 -0.030000
v -0.028028 -0.086261 0.000000
v -0.073378 -0.053312 0.000000
v -0.018685 -0.057507 -0.030000
v -0.060467 0.000000 -0.030000
v -0.073378 -0.053312 0.000000
v -0.090700 0.000000 0.000000
v -0.048919 -0.035541 -0.030000
v 0.000000 0.000000 0.090000
v -0.073378 0.053312 0.000000
v -0.090700 0.000000 0.000000
v 0.000000 0.000000 0.090000
v -0.028028 0.086261 0.000000
v -0.073378 0.053312 0.000000
v -0.028028 0.086261 0.000000
v 0.000000 0.000000 0.090000
v 0.028028 0.086261 0.000000
v 0.073378 0.053312 0.000000
v 0.028028 0.086261 0.000000
v 0.000000 0.000000 0.090000
v 0.090700 0.000000 0.000000
v 0.073378 0.053312 0.000000
v 0.000000 0.000000 0.090000
v 0.090700 0.000000 0.000000
v 0.000000 0.000000 0.090000
v 0.073378 -0.053312 0.000000
v 0.073378 -0.053312 0.000000
v 0.000000 0.000000 0.090000
v 0.028028 -0.086261 0.000000
v 0.028028 -0.086261 0.000000
v 0.000000 0.000000 0.090000
v -0.028028 -0.086261 0.000000
v 0.000000 0.000000 0.090000
v -0.073378 -0.053312 0.000000
v -0.028028 -0.086261 0.000000
v 0.000000 0.000000 0.090000
v -0.090700 0.000000 0.000000
v -0.073378 -0.053312 0.000000
vt 0.095492 0.190983
vt 0.166667 0.500000
vt 0.230328 0.293989
vt 0.345492 1.000000
vt 0.603006 0.833333
vt 0.396994 0.833333
vt 0.396994 0.166667
vt 0.095492 0.190983
vt 0.230328 0.293989
vt 0.833333 0.500000
vt 0.904509 0.809017
vt 1.000000 0.500000
vt 0.904509 0.809017
vt 0.603006 0.833333
vt 0.654509 1.000000
vt 0.904509 0.190983
vt 0.833333 0.500000
vt 1.000000 0.500000
vt 0.166667 0.500000
vt 0.095492 0.809017
vt 0.230328 0.706011
vt 0.904509 0.190983
vt 0.603006 0.166667
vt 0.769673 0.293989
vt 0.396994 0.833333
vt 0.095492 0.809017
vt 0.345492 1.000000
vt 0.500000 0.500000
vt 0.095492 0.809017
vt 0.000000 0.500000
vt 0.500000 0.500000
vt 0.345492 1.000000
vt 0.095492 0.809017
vt 0.345492 1.000000
vt 0.500000 0.500000
vt 0.654509 1.000000
vt 0.904509 0.809017
vt 0.654509 1.000000
vt 0.500000 0.500000
vt 1.000000 0.500000
vt 0.904509 0.809017
vt 0.500000 0.500000
vt 1.000000 0.500000
vt 0.500000 0.500000
vt 0.904509 0.190983
vt 0.904509 0.190983
vt 0.500000 0.500000
vt 0.654509 0.000000
vt 0.654509 0.000000
vt 0.500000 0.500000
vt 0.345492 0.000000
vt 0.500000 0.500000
vt 0.095492 0.190983
vt 0.345492 0.000000
vt 0.500000 0.500000
vt 0.000000 0.500000
vt 0.095492 0.190983
vt 0.166667 0.500000
vt 0.833333 0.500000
vt 0.769673 0.293989
vt 0.654509 0.000000
vt 0.396994 0.166667
vt 0.603006 0.166667
vt 0.000000 0.500000
vt 0.654509 1.000000
vt 0.345492 0.000000
vt 0.769673 0.706011
vt 0.769673 0.706011
vt 0.769673 0.293989
vt 0.000000 0.500000
vt 0.654509 0.000000
vt 0.230328 0.706011
vt 0.603006 0.166667
vt 0.396994 0.166667
vt 0.230328 0.293989
vt 0.230328 0.706011
vt 0.396994 0.833333
vt 0.603006 0.833333
vt 0.769673 0.706011
vt 0.345492 0.000000
vn -0.6866 -0.2231 -0.6920
vn 0.0000 0.7219 -0.6920
vn -0.4243 -0.5841 -0.6920
vn 0.6866 0.2231 -0.6920
vn 0.4243 0.5841 -0.6920
vn 0.6866 -0.2231 -0.6920
vn -0.6866 0.2231 -0.6920
vn 0.4243 -0.5841 -0.6920
vn -0.4243 0.5841 -0.6920
vn -0.6866 0.2231 0.6920
vn -0.4243 0.5841 0.6920
vn 0.0000 0.7219 0.6920
vn 0.4243 0.5841 0.6920
vn 0.6866 0.2231 0.6920
vn 0.6866 -0.2231 0.6920
vn 0.4243 -0.5841 0.6920
vn 0.0000 -0.7219 0.6920
vn -0.4243 -0.5841 0.6920
vn -0.6866 -0.2231 0.6920
vn 0.0000 0.0000 -1.0000
vn 0.0000 -0.7219 -0.6920
usemtl None
s off
f 48/1/1 47/2/1 50/3/1
f 20/4/2 19/5/2 22/6/2
f 46/7/3 45/8/3 43/9/3
f 28/10/4 27/11/4 30/12/4
f 26/13/5 25/14/5 23/15/5
f 32/16/6 31/17/6 34/18/6
f 12/19/7 11/20/7 14/21/7
f 38/22/8 37/23/8 35/24/8
f 18/25/9 17/26/9 15/27/9
f 51/28/10 52/29/10 53/30/10
f 54/31/11 55/32/11 56/33/11
f 57/34/12 58/35/12 59/36/12
f 60/37/13 61/38/13 62/39/13
f 63/40/14 64/41/14 65/42/14
f 66/43/15 67/44/15 68/45/15
f 69/46/16 70/47/16 71/48/16
f 72/49/17 73/50/17 74/51/17
f 75/52/18 76/53/18 77/54/18
f 78/55/19 79/56/19 80/57/19
f 3/58/20 10/59/20 9/60/20
f 40/61/21 39/62/21 42/63/21
f 48/1/1 49/64/1 47/2/1
f 20/4/2 21/65/2 19/5/2
f 46/7/3 44/66/3 45/8/3
f 28/10/4 29/67/4 27/11/4
f 26/13/5 24/68/5 25/14/5
f 32/16/6 33/69/6 31/17/6
f 12/19/7 13/70/7 11/20/7
f 38/22/8 36/71/8 37/23/8
f 18/25/9 16/72/9 17/26/9
f 9/60/20 7/73/20 5/74/20
f 5/74/20 2/75/20 3/58/20
f 3/58/20 1/76/20 4/77/20
f 4/77/20 6/78/20 8/79/20
f 8/79/20 10/59/20 3/58/20
f 9/60/20 5/74/20 3/58/20
f 3/58/20 4/77/20 8/79/20
f 40/61/21 41/80/21 39/62/21
