# Blender v2.90.1 OBJ File: ''
# www.blender.org
mtllib seg_pillar.mtl
o seg_pillar
v 0.550000 -0.500000 0.500000
v 0.550000 0.500000 0.500000
v -0.550000 0.500000 0.500000
v -0.550000 -0.500000 0.500000
v -0.550000 0.500000 -0.500000
v -0.550000 -0.500000 -0.500000
v 0.550000 -0.500000 -0.500000
v 0.550000 0.500000 -0.500000
vt 1.000000 0.000000
vt 0.000000 1.000000
vt 0.000000 0.000000
vt 1.000000 0.000000
vt 0.000000 1.000000
vt 0.000000 0.000000
vt 1.000000 0.000000
vt 0.000000 1.000000
vt 0.000000 0.000000
vt 1.000000 0.000000
vt 0.000000 1.000000
vt 0.000000 0.000000
vt 1.000000 1.000000
vt 1.000000 1.000000
vt 1.000000 1.000000
vt 1.000000 1.000000
vn 0.0000 -0.0000 1.0000
vn -1.0000 -0.0000 0.0000
vn 1.0000 0.0000 0.0000
vn 0.0000 0.0000 -1.0000
usemtl Default_OBJ
s 1
f 2/1/1 4/2/1 1/3/1
f 3/4/2 6/5/2 4/6/2
f 8/7/3 1/8/3 7/9/3
f 5/10/4 7/11/4 6/12/4
f 2/1/1 3/13/1 4/2/1
f 3/4/2 5/14/2 6/5/2
f 8/7/3 2/15/3 1/8/3
f 5/10/4 8/16/4 7/11/4
